<svg xmlns="http://www.w3.org/2000/svg" xmlns:xlink="http://www.w3.org/1999/xlink" xml:space="preserve" id="Layer_1" width="100.414" height="100.425" x="0" y="0" style="enable-background:new 0 0 100.414 100.425" version="1.1"><style>.st0{fill:#fff}.st2{fill:#212121}</style><path d="m40.207 77.525-.49.101s-2.493-8.358-4.733-19.201c-2.205-10.67-3.264-19.504-3.264-19.504l.49-.101s2.493 8.359 4.733 19.201 3.264 19.504 3.264 19.504zM41.793 79.381l-.261-.427s3.796-3.201 9.132-6.464c5.25-3.211 9.914-5.184 9.914-5.184l.261.427s-3.796 3.201-9.132 6.464c-5.335 3.263-9.914 5.184-9.914 5.184zM33.509 38.554l.098-.49s6.995.635 15.72 2.381c8.586 1.718 15.426 3.852 15.426 3.852l-.098.49s-6.995-.635-15.72-2.381c-8.725-1.746-15.426-3.852-15.426-3.852zM63.026 64.64l-.489-.104s.081-3.97 1.118-8.829c1.021-4.781 2.585-8.515 2.585-8.515l.489.104s-.081 3.97-1.118 8.829c-1.038 4.858-2.585 8.515-2.585 8.515zM68.441 43.459l-.437-.242s2.465-6.003 6.441-13.188c3.913-7.071 7.754-12.462 7.754-12.462l.437.242s-2.465 6.003-6.441 13.188-7.754 12.462-7.754 12.462zM32.1 37.689l-.189-.463s11.107-5.331 25.619-11.238c14.28-5.813 26.185-9.848 26.185-9.848l.188.463s-11.108 5.331-25.619 11.238S32.1 37.689 32.1 37.689zM29.903 36.096l-.37.336s-3.162-2.371-6.484-6.033c-3.269-3.604-5.373-7.041-5.373-7.041l.37-.336s3.163 2.371 6.484 6.033 5.373 7.041 5.373 7.041z" class="st0"/><defs><circle id="SVGID_1_" cx="50.414" cy="50.425" r="50"/></defs><clipPath id="SVGID_00000037666146282522140330000009685407796486610871_"><use xlink:href="#SVGID_1_" style="overflow:visible"/></clipPath><g style="clip-path:url(#SVGID_00000037666146282522140330000009685407796486610871_)"><path d="M54.459 55.269c-.002.015-.041.024-.108.028a.624.624 0 0 1-.073-.001l-.049-.003c-.01-.01-.014-.029-.022-.044-.033-.08-.048-.107-.067-.179-.039-.116-.033-.357.188-.462a.276.276 0 0 1 .345.113.51.51 0 0 1 .047.328.97.97 0 0 1-.088.284c-.041.085-.118.193-.249.217a.285.285 0 0 1-.286-.135.353.353 0 0 1-.054-.243c.026-.145.101-.225.147-.275.049-.049.083-.069.095-.06.013.009.002.047-.023.108-.023.06-.065.146-.063.24-.007.081.089.192.143.164.058-.002.139-.184.158-.33a.348.348 0 0 0-.015-.188.065.065 0 0 0-.08-.033c-.086.03-.125.141-.11.245.002.045.021.12.018.129-.002.015.004.022.015.024.009.004.018.009.037.015.062.023.097.043.094.058zM7.747 39.056c.007.011.019.03-.007.047-.014.008-.037.007-.055-.002a.118.118 0 0 1-.043-.034.093.093 0 0 1-.018-.071c.005-.02.004-.036.034-.067l.02-.016.001-.003.001-.002.02-.009.013-.006a.162.162 0 0 1 .117.003.204.204 0 0 1 .08.055c.011.014.019.021.03.045a.226.226 0 0 1 .023.143.284.284 0 0 1-.096.171.325.325 0 0 1-.285.071c-.025-.006-.065-.024-.061-.022l-.005-.002-.022-.012-.022-.015a.336.336 0 0 1-.137-.26.331.331 0 0 1 .053-.196l.073-.115.039.005c.098.012.172.054.193.121.021.067-.015.144-.089.21l.113-.11c.012.012.023.024.032.025l-.015.004-.026.01c-.016.008-.024.018-.024.018a.376.376 0 0 0-.029.033h.001l.003.001.005.001c.01.005.005-.005.002-.008 0-.008.002-.017.001-.024-.002-.016-.006-.014.004 0 .009.014.03.028.037.029.004.001.004 0-.001.001l-.003.001.03-.005-.001-.001-.002-.001h-.003l-.003.003c.008-.001.024-.033.019-.028v.001l-.002-.012h-.003c.001-.001.003.002.006.002.007.002.013.001.011.001-.006 0-.02.015-.016.014a.017.017 0 0 0-.002-.005c-.004-.007.006.007.009.011zM37.874 36.739l.002.026.002.013s.001.004.006.008c.004.005.011.007.006.005-.004-.002-.021.003-.018.003l-.023-.145a.333.333 0 0 1 .143-.043l-.078.2h-.013c-.01.002-.016.007-.012.004.005-.002.007-.015.014-.019-.01-.011.007.024.008.02.001 0-.014-.007-.019-.006-.017-.011-.051.017-.079.018-.03.001-.061.014-.088-.027-.025-.031-.037-.09-.01-.153a.214.214 0 0 1 .077-.091.238.238 0 0 1 .094-.036l.011-.002.006-.001h.002l.014.001h.001l.006-.002.004-.001.016.001a.29.29 0 0 1 .253.373l-.055.182-.163-.02a.335.335 0 0 1-.141-.051l-.117-.05a.176.176 0 0 1-.026-.19.144.144 0 0 1 .083-.073c.065-.02.095.023.094.056zM14.646 78.203c-.013.024-.058.046-.111-.009-.047-.057-.059-.164.01-.26a.25.25 0 0 1 .077-.069c.02-.01.034-.018.064-.025a.393.393 0 0 1 .048-.006l.017-.002a.312.312 0 0 1 .234.113.38.38 0 0 1 .089.223c.001.044.002.077-.017.141l-.006.017-.001.004-.008.018-.006.014a.51.51 0 0 1-.353.26l-.182.043-.058-.132c-.089-.201 0-.367.08-.423l.066-.051c.038-.01.1.012.117.043.02.028.021.05.02.066a.103.103 0 0 1-.037.072c-.02.018-.05.019-.064.009a.105.105 0 0 1-.005-.03c0-.008.003-.027.006-.017-.003.002 0 .002-.008-.003-.007-.005-.024-.005-.015-.005a.044.044 0 0 0 .017-.008c.005-.005.001-.006.004.005l.089.034c.015.048.049.099.078.106l-.241-.089a.292.292 0 0 0 .087-.072l.001-.002.052.032-.001-.004c-.001-.005-.001-.013-.004-.016-.017.011-.025.002-.031.004-.011.002.017-.002.04-.019a.11.11 0 0 0 .022-.022l.002-.004-.001.002.016-.033h-.001l-.006-.001c-.011-.005.011.031.021.041.016.013-.001-.001-.013-.002a.086.086 0 0 0-.048-.001c-.004.001-.002 0-.007.004a.08.08 0 0 0-.014.017c-.005.009-.01.024-.019.037zM46.913 50.216c-.02.004-.044-.002-.062-.031-.017-.028-.029-.079.002-.144l.08-.163.122.236a.881.881 0 0 1 .071.213l.044.198-.256-.015a.304.304 0 0 1-.209-.113.367.367 0 0 1-.081-.205.345.345 0 0 1 .145-.315l.023-.015.006-.004.003-.002.002-.001.021-.01.002-.001a.338.338 0 0 1 .166-.024.37.37 0 0 1 .28.192.34.34 0 0 1 .001.342.32.32 0 0 1-.437.108.29.29 0 0 1-.143-.18c-.011-.056.006-.091.033-.104.054-.026.138.006.214-.013.008-.002.016-.005.02-.01.006-.002.004-.017.007.009.004.018.007.025.009.027l-.007-.007-.008-.006-.001-.001c-.005-.007.047.06.025.031l.001-.001.003-.003.006-.006.005-.002-.003.002c-.003.002-.003.007-.006.006l-.02-.001a.14.14 0 0 0-.045.014c-.008.005-.004.005.005-.008a.104.104 0 0 0 .021-.047c.001-.013-.001-.009.002-.005.017-.009-.02.003-.009.001.006 0 .01-.006.013 0a.115.115 0 0 0 .062.02c.01-.002-.017.002-.038.018-.022.015-.025.033-.021.018l-.202.118a.91.91 0 0 1 .065-.214l.199.071c-.007-.007-.034-.007-.052.002-.019.009-.037.021-.058.025zM7.291 54.092c.023.01.042.033.039.073-.003.038-.03.096-.11.127l-.048.019-.082-.079a.252.252 0 0 1-.074-.178.285.285 0 0 1 .109-.229.32.32 0 0 1 .3-.048.318.318 0 0 1 .218.294.345.345 0 0 1-.41.341l-.013-.004c-.038-.01-.046-.019-.069-.03a.27.27 0 0 1-.133-.251c.006-.098.06-.164.11-.186.06-.03.08.002.101.021.022.021.013.066.039.08.017.022.04.036.061.037.009-.001.003 0-.006.003a.109.109 0 0 0-.023.014.046.046 0 0 0-.011.012l.001-.002-.012.005h.002l.003.001.011.004c.002 0-.002-.003-.004-.004-.005-.007-.017-.046-.027-.05-.009-.006.022.016.049.014.013 0 .015-.004.001.003-.002.006-.012.015-.012.02-.001.013.001-.018-.008-.025.004.01.028.019.023.016-.004-.002-.023.002-.027.006l-.101-.047c-.009-.023.007.013.03.018.023.013.05.015.073.025zM20.13 14.235a.067.067 0 0 1-.074-.003c-.027-.018-.052-.064-.05-.121a.247.247 0 0 1 .084-.175.258.258 0 0 1 .126-.064.288.288 0 0 1 .191.029l.075.042.022.118a.46.46 0 0 1-.3.515l-.259.082-.015-.204c-.009-.118.038-.204.086-.244.05-.042.098-.042.132-.021.064.045.099.143.152.171l-.275-.122.04-.089.025-.056.156.065c.005-.009 0-.003.002.011a.094.094 0 0 0 .014.038c.013.017-.003-.004-.023-.011-.02-.006-.027-.008-.052.001-.019.009-.036.026-.057.038zM11.014 91.375c-.046-.031-.073-.094-.056-.186a.53.53 0 0 1 .222-.312l.17-.123.184.226a.372.372 0 0 1 .082.173.385.385 0 0 1-.048.253c-.082.13-.16.165-.224.201a.64.64 0 0 1-.438.054l-.227-.045-.046-.329-.022-.158-.009-.083c-.002-.027-.006-.049-.007-.117l-.001-.043-.001-.007-.002-.016-.004-.038c-.003-.02-.005-.074-.005-.018V91.099c.001.006-.001.012.001.017l.046.016.368.128.092.032c.025.018.032.062.049.091l.088.197.088.196.022.049c.007.017.014.037.024.028l.055-.012.22-.046c.154-.068.17-.112.175-.112.008-.01 0-.003-.012.005a.624.624 0 0 1-.342.13.635.635 0 0 1-.507-.217.818.818 0 0 1-.082-.112c-.018-.029-.013-.028-.017-.039l-.002-.006-.001-.003v-.003l-.01-.019v-.001l-.007-.023a.534.534 0 0 1-.02-.089.52.52 0 0 1 .115-.425c.064-.071.13-.097.19-.086.061.011.109.063.152.135.042.069.088.165.139.18.006.002.011.003.017.002h.004l-.096.034h.001l.002.001.003.002.007.003c.008.002.022.015.023.002a.05.05 0 0 1 .019-.033l.008-.01.002-.003.001-.001.031-.047h.004a.063.063 0 0 0 .041-.032c.01-.03-.003-.033.001-.032l-.014-.001c-.002-.01-.005.024-.008.053l-.01.082-.024.157-.328-.199a.48.48 0 0 0 .021-.153c-.001-.016.001.026.024.09.021.063.069.139.102.158.04.019.01-.006-.041.036l.214.202c-.146-.028-.302.016-.396-.046zM73.299 89.005a.119.119 0 0 1-.068.013c-.026-.004-.049-.006-.087-.038l-.028-.024-.011-.009a.398.398 0 0 1-.024-.019c-.021-.018-.047-.039-.096-.102l.071-.043.011-.007.006-.003h.635c.011 0 .026-.001.023.002l.006.011.012.022.025.045c.008.015.019.034.017.033l.009.026a.257.257 0 0 1-.009.184.294.294 0 0 1-.2.167l-.022.004-.03.004a.312.312 0 0 1-.242-.082.269.269 0 0 1-.077-.131.207.207 0 0 1 .023-.168c.024-.034.054-.048.084-.048.06-.003.119.063.169.067.006 0 .011-.001.014-.004l-.006.005-.002.002-.035.033.006.001c.014-.009.013-.033.013-.023l.001.01.001.007.001.004v.001l-.027-.087.003-.001.003-.001-.001-.006-.002-.004h-.003a.118.118 0 0 0-.033.008l-.031.011c-.015.004-.022.011-.025.02-.013.013-.016.048-.027.069a.117.117 0 0 1-.047.051zM30.291 89.738c.011.022.011.054-.025.081-.036.026-.105.038-.178-.002a.222.222 0 0 1-.112-.175l-.003-.009-.001-.002v-.001l.001-.017.001-.014a.249.249 0 0 1 .034-.109.3.3 0 0 1 .435-.092l.038.028.026.056a.374.374 0 0 1-.002.317.358.358 0 0 1-.27.208.337.337 0 0 1-.178-.025.311.311 0 0 1-.172-.339c.014-.079.073-.149.13-.168l.036-.018c.067.016.112.046.125.09.013.043-.007.094-.054.144l.023-.037c-.012-.014-.003.002.026.002.03.002.05-.015.027.001-.021.01-.035.07-.02.014-.013-.001-.009-.016-.023-.027a.087.087 0 0 0-.025-.02c-.007.001.039.007.049-.002l.078.01c-.001-.003-.008.026-.003.035.004.01-.003-.008-.016-.017-.005-.004-.012-.006-.011-.005v-.003.009c.002.001.003-.007.005-.006a.053.053 0 0 0 .026-.016c.005-.01-.013.026-.005.045.007.022.027.041.038.064zM53.95 84.439c-.034-.022-.062-.078-.011-.183a.224.224 0 0 1 .083-.083.261.261 0 0 1 .083-.029l.009-.003c.023-.001.027 0 .042.001.024.002.049.01.072.021a.266.266 0 0 1 .11.358.226.226 0 0 1-.109.096.244.244 0 0 1-.132.015l-.08-.012-.05-.076a.285.285 0 0 1-.021-.278.31.31 0 0 1 .189-.17c.048-.014.064-.014.097-.014.014 0 .012-.001.012-.001.002-.001-.006-.002-.015-.002h-.028c-.005.002-.011-.004-.016.005l-.015.065-.013.056-.006.028c-.001.011-.003.02-.019.014l-.146-.022c-.022.002-.052-.021-.069.003l-.046.078-.09.154a1.333 1.333 0 0 0-.032.317c.001.074.009.035.013.01.002-.011.012-.111.025-.178a.549.549 0 0 1 .075-.185c.157-.214.287-.171.312-.128.035.046-.027.162.006.206.023.058.083.006.067.016.004 0-.009 0 .009-.008l.003-.001.002-.001h.001l-.044-.122.001.004.004.007a.053.053 0 0 0 .007.01c.004.004.003.002-.005-.002-.017-.011-.045-.004-.034-.007l-.049-.022c-.007.032.009.032-.009.02a.116.116 0 0 0-.056-.012c-.023.007.031-.011.035-.028 0 0 .002-.005.001-.001l.004.056-.009-.002c-.002-.001.007.001.007.011.006.013.007.013.001.008a.038.038 0 0 0-.016-.003c-.052.008-.113.039-.15.014zM54.612 75.916c-.031-.005-.06-.061-.044-.165a.537.537 0 0 1 .26-.358l.336-.205-.105.406a.401.401 0 0 1-.518.278l-.084-.024-.037-.107a.628.628 0 0 1-.009-.382l.022-.074.071-.044a.446.446 0 0 1 .466-.007l.042.024.028.042a.586.586 0 0 1 .055.105c.087.234.022.517-.227.653a.435.435 0 0 1-.372 0 .433.433 0 0 1-.224-.233.337.337 0 0 1-.02-.173l.005-.02c.008-.043.01-.036.016-.056.009-.027.027-.051.042-.073a.312.312 0 0 1 .221-.114c.135-.011.238.059.262.122.029.064.006.108-.014.119-.02.012-.04-.004-.075-.012a.145.145 0 0 0-.116.028c-.022.01-.017.039-.026.028.002 0-.009-.004-.001-.001l.003.001h.001l.019-.011.001.021c-.001.025.007-.006.005-.005h.006c.006.001.026.014.046.015.024.004.023-.006.026-.009.001.002.032-.068.008-.118l-.008-.017.075.057c-.007.015-.013.006-.019 0l.095-.113a.26.26 0 0 0-.015.132l-.129-.116a.061.061 0 0 0 .003-.013l.003.004a.045.045 0 0 0 .018.003c.015-.001.026-.006.034-.008l.23.201c-.204.051-.292.234-.356.219zM15.598 59.245c-.016.009-.044.004-.068-.033-.023-.036-.036-.106 0-.184a.24.24 0 0 1 .156-.131c.031-.006.009-.006.045-.009a.27.27 0 0 1 .112.014.321.321 0 0 1 .172.147.31.31 0 0 1 .013.279l-.023.052-.067.033a.343.343 0 0 1-.3-.004.346.346 0 0 1-.062-.591.371.371 0 0 1 .369-.06l.111.043.021.12a.794.794 0 0 1-.473.881l-.233.089-.034-.214a.691.691 0 0 1 .129-.542c.086-.104.165-.126.194-.101.063.049-.058.288.046.55l-.267-.125a.497.497 0 0 0 .208-.38c.002-.027-.002-.052-.004-.076l.169.075c-.008.001.007.061.007.05-.001-.008-.055-.038-.041-.017.012-.013.05-.036.04-.033-.007.005-.01.051-.005.05l-.057.06c.003-.004-.044-.003-.047.003.004-.005.006-.005.019-.028.004-.009.004-.014.004-.014.015.001-.02.001-.006.004.005 0 .011.006.008.004-.004-.007-.016-.008-.028-.004-.057.016-.076.071-.108.092zM79.364 75.332c-.013.026-.092.03-.17-.066a.385.385 0 0 1 .053-.506l.127-.119.118.164a.447.447 0 0 1 .031.436.475.475 0 0 1-.429.291l-.14.002-.054-.142c-.024-.064-.063-.146-.063-.276a.38.38 0 0 1 .268-.364.326.326 0 0 1 .275.034c.016.01.03.022.044.034l.01.01c.029.029.035.042.049.064.023.04.034.077.04.108.012.063.01.094.011.131a1.05 1.05 0 0 1-.121.493l-.186.355-.164-.337a.805.805 0 0 1-.018-.696c.075-.152.167-.201.2-.179.038.024.024.11.027.235a.782.782 0 0 0 .133.441l-.35.018a.867.867 0 0 0 .045-.254c.001-.022 0-.045-.001-.068.004-.023-.015-.049.006-.05.102-.027.114-.039.11-.046 0 0-.009.04.001.064.01.028.011.015-.011 0a.12.12 0 0 0-.015-.009l-.004-.002h-.001c-.016-.004.143.035.075.019v.017c.006-.002.014-.008.019-.005l-.001.002a.338.338 0 0 0 .025.114l-.194-.14c.001.008.043-.002.069-.039a.15.15 0 0 0 .033-.089l.244.045c-.051.007-.092.108-.088.169-.007.063.015.112-.003.141zM69.571 59.834c-.017.02-.091.009-.095-.102a.224.224 0 0 1 .068-.15c.048-.042.106-.096.239-.074a.317.317 0 0 1 .226.202.436.436 0 0 1 .001.304c-.088.221-.281.304-.409.362-.049.019-.135.067-.27.052a.356.356 0 0 1-.282-.23.428.428 0 0 1 .117-.464c.186-.135.331-.099.412-.082.085.025.126.061.128.098.001.038-.043.073-.111.109-.065.033-.158.085-.173.132-.001.01.003.017.006.026-.004.013.022.019-.001.026-.052.017-.064.064-.052.024.008-.009-.011-.097-.001-.077l.05-.021c.28-.123.184-.11.275-.208.009.005.004.039.006.034-.003-.005-.01-.008-.018-.01-.016-.003-.032-.003-.046-.003-.031-.005-.048.033-.07.052zM67.259 25.554c-.027.001-.063-.034-.057-.114.007-.073.06-.202.235-.247l.065-.017.074.082c.117.129.148.362.026.558a.487.487 0 0 1-.119.132l.001.005c.003.001.005.004.005.004s-.001-.004-.004-.005c.018-.03-.057.078-.114.117a.565.565 0 0 1-.204.104l-.096.025-.065-.043a.312.312 0 0 1-.136-.228.34.34 0 0 1 .037-.191c.049-.106.174-.181.276-.164l.057.013c.093.073.095.16.083.206-.015.05-.045.063-.065.057-.034-.013-.09-.077-.128-.049l.057.013c0 .007-.002.002.009.019.004.005.006.012.009.021-.002.009.019.016.004.017-.03.003-.05.026-.038.012l-.129-.072a.224.224 0 0 0 .054-.049c.009-.01.016-.022.023-.033a.247.247 0 0 0 .037-.131l.085.063.043.032c.009.005.001-.01.003-.015l-.004-.041c-.001-.013-.006-.033.006-.023.015.007.032.008.045.02.011.008.033.036.036.029.003-.022.004-.045.003-.068-.003-.009.003-.029-.007-.028-.011.002-.022.007-.033.012-.019.009-.033.027-.049.038-.009.004-.022.002-.039-.005.003.01-.045-.041-.07-.065l-.044-.044c-.013-.014-.002.001.003.01l.017.028.034.055.017.028c.007.011.012.02.005.013l-.045-.027c-.019-.006-.005.026-.012.032a.225.225 0 0 1-.017.055l-.008.017.02-.038c-.001-.019.036-.01.055-.014l.034-.002c.005-.009-.017-.049-.004-.047.022-.011.024-.012.037-.024a.193.193 0 0 0 .057-.156l.139.065c-.022-.02-.079-.007-.113.013-.034.018-.061.045-.091.045zM55.261 60.662c-.03.007-.063-.005-.098-.036-.034-.037-.072-.066-.097-.19a.434.434 0 0 1 .093-.371.389.389 0 0 1 .42-.123.243.243 0 0 1 .088.049c0 .002-.008.002-.037-.006-.024-.006-.026-.012-.067-.017-.046-.001-.076-.017-.132-.005l-.201.077-.128.167a.407.407 0 0 0-.043.179c.002.052.007.041.008.029l.002-.012.001-.006v-.003a2.44 2.44 0 0 0-.038-.009l.008-.005.061-.039a.486.486 0 0 1 .099-.048c.056-.02.092-.015.114.006.022.021.03.056.035.088l.006.048c-.001.016.003.03.029.034.082.013.065 0 .064.011.009-.001-.024-.047-.066-.008-.021.006-.033.08-.051.115-.017.041-.04.068-.07.075zM65.908 39.632c-.036.005-.083-.027-.092-.112-.006-.079.032-.219.2-.292l.117-.051.098.153a.542.542 0 0 1-.007.559.543.543 0 0 1-.211.201l-.35.185.027-.365c.007-.099.022-.19.042-.265l.046-.171.096.003c.126.004.203.066.235.117.033.053.025.096.002.118-.046.041-.149.04-.188.094l.142-.168c.023.075.041.164.052.263l-.323-.18c.016-.017.034-.036.049-.063a.38.38 0 0 0 .052-.181l.215.103c-.009-.021-.059-.016-.095.001-.037.017-.069.046-.107.051zM40.599 50.737c-.043-.011-.068-.085-.074-.205-.004-.021.004-.088.01-.143l.012-.095.002-.013.001-.006v-.003c.057.059.016.016.029.029l-.001.001-.01.009-.028.024a.562.562 0 0 0-.149.206c-.026.084-.055.144-.044.154a.44.44 0 0 1 .109-.351c.044-.056.11-.1.179-.138.039-.015.071-.034.118-.043.041-.011.069-.013.105-.016a.499.499 0 0 1 .358.125l.136.126-.092.145a.63.63 0 0 1-.412.303.44.44 0 0 1-.145 0l-.019-.005-.005-.001-.014-.003-.005-.001-.019-.006a.33.33 0 0 1-.206-.218c-.038-.126.006-.237.061-.273.056-.041.105-.028.124-.01.018.016.01.038.014.071.003.035.026.07.057.092.038.028.045.001.065-.015a.387.387 0 0 0 .123-.149l.044.271c-.01-.003-.019-.007-.046-.007l-.019.002c.005-.002.002-.002.002-.002s-.002-.002-.005-.002c-.005-.001-.014 0-.024.009-.005 0-.004-.012-.014-.041-.005-.022-.015-.016-.024-.008-.011.012-.018.006-.036.041-.059.102-.115.157-.158.146zM26.512 64.713c-.023-.011-.04-.045-.02-.1.019-.053.081-.12.187-.144a.336.336 0 0 1 .186.011c.017.005.046.022.059.029l.014.007.003.002.014.012.012.01a.371.371 0 0 1 .081.095.433.433 0 0 1-.064.515.417.417 0 0 1-.305.118c-.239.001-.459-.214-.45-.417a.39.39 0 0 1 .294-.38c.125-.031.233.009.283.058.049.051.046.097.027.118-.02.024-.057.028-.092.042a.263.263 0 0 0-.095.071c-.016.028-.008.054.006.061.017.009.014-.005.028.002 0 0 0 .002.003.003.004.005.018-.001.024-.021.01-.009.02-.03-.013-.051-.059-.042-.133-.022-.182-.041zM87.547 54.274c.057.005.112.125.04.307a.561.561 0 0 1-.243.275.473.473 0 0 1-.251.077c-.039.011-.127.017-.166-.165a1.407 1.407 0 0 1-.022-.511c.025-.158.062-.261.088-.364l.118.04c.034.012.106.038.147.06.094.051.157.13.188.201.06.149.007.229-.037.231-.047.005-.1-.038-.151-.041-.05-.007-.088.023-.074.059.002.013.004.011.004.011.001-.002-.005.01.006.017-.002.009.03-.005.058-.021a.879.879 0 0 0 .075-.047c.095-.063.158-.137.22-.129zM41.819 10.098c.003-.014.026-.026.067-.019a.22.22 0 0 1 .138.103.27.27 0 0 1 .008.278.3.3 0 0 1-.128.119.35.35 0 0 1-.088.029.345.345 0 0 1-.124-.003.37.37 0 0 1-.079-.03l-.038-.018-.007-.039-.008-.038.001-.044.002-.066.013-.249c.081.002.166.004.209.009a.79.79 0 0 1 .092.018c.051.014.081.031.081.051.001.02-.027.039-.077.057a.78.78 0 0 1-.09.026c-.028.008-.022.013-.028.019a.088.088 0 0 0 .007.014l.002.002c.001-.001.001.002.001.011l.002.042.001.02h.002l.001-.001a.134.134 0 0 0 .078-.04c.023-.022.03-.064.023-.102-.011-.079-.068-.119-.061-.149zM57.704 22.4c-.099-.006-.175-.147-.192-.336l.414.074a.326.326 0 0 1-.294.236.343.343 0 0 1-.226-.061.307.307 0 0 1-.099-.115c-.017-.035-.008-.022-.013-.035-.017-.05-.012-.052-.016-.08.003-.189.125-.257.199-.279.083-.023.162.001.197.041.048.048.015.071.007.099-.01.03-.06.033-.058.066a.087.087 0 0 0 .005.068c.018.012-.045-.038-.053-.028-.004.039.034-.062.028-.054-.007.016.039.069.024.052l.307.041c-.039.186-.131.317-.23.311zM52.085 16.589c-.017.004-.044-.025-.054-.089a.318.318 0 0 1 .09-.258l.056-.06.07.068c.064.062.105.16.102.262 0 .026-.004.051-.008.077l-.01.039-.007.02-.012.03a.384.384 0 0 1-.15.167c-.043.025-.094.047-.138.069-.037-.079-.075-.146-.098-.23-.025-.098-.021-.129-.022-.179a.695.695 0 0 1 .043-.22l.013-.037c.003-.005.002-.014.009-.015h.02a.532.532 0 0 1 .19.02c.034.01.053.023.054.037.001.014-.017.029-.049.043a.491.491 0 0 1-.06.022c-.023.007-.024.013-.033.018-.005.007.001.024.003.031.001.022.002.061.007.093.015.099.02.067.02.07v-.001l.001.001v.002a.08.08 0 0 0 .004-.009l.007-.019c.003-.013.007-.026.008-.039a.203.203 0 0 0-.025-.133l.126.008c-.117.075-.122.208-.157.212zM57.704 37.834c-.021-.005-.034-.074.029-.165a.362.362 0 0 1 .315-.15c.059.003.114.018.178.033-.011.066-.014.13-.039.205-.031.087-.051.117-.08.161-.019.027-.047.06-.072.088-.034.005-.068.01-.102.01a.277.277 0 0 1-.088-.016.33.33 0 0 1-.121-.075.302.302 0 0 1-.094-.233l.008-.096.08.007c.22.021.313.139.292.164-.019.033-.133-.008-.288.015l.087-.089a.135.135 0 0 0 .053.077.141.141 0 0 0 .048.023c.022.005.008 0 .012.001l.002-.004c.05-.081.029-.046.041-.06-.001-.004.005-.015-.024-.012a.352.352 0 0 0-.117.044c-.063.037-.095.08-.12.072zM63.943 34.462c-.017-.011-.014-.058.036-.118a.354.354 0 0 1 .297-.114l.138.01-.068.137a.694.694 0 0 1-.409.346c-.083.029-.156.036-.227.049-.025.018-.015-.033-.018-.058l-.001-.086v-.041l.002-.026a.78.78 0 0 1 .004-.05c.011-.058.017-.111.079-.111a.22.22 0 0 1 .208.061c.029.036.027.064.016.072-.012.01-.034.003-.063 0-.025-.001-.05.006-.06.021-.008.005.001.021.004.028l.003.005.001.002.002-.015.003-.034c.001-.01.002-.03.003-.026.006-.004.008-.008.009-.009.002-.001-.004.001.005-.003l.026-.013a.76.76 0 0 0 .248-.213l.069.147a.34.34 0 0 0-.198.013c-.056.019-.091.038-.109.026zM21.382 37.427c-.014-.001-.03-.02-.028-.06a.193.193 0 0 1 .087-.139.235.235 0 0 1 .27.001.273.273 0 0 1 .099.137.272.272 0 0 1-.033.241l-.016.024c-.007.006-.017.009-.025.014-.017.008-.034.019-.05.024l-.036.012a.426.426 0 0 1-.135.016.415.415 0 0 1-.211-.063c-.107-.07-.127-.153-.104-.169.025-.021.081.011.166.025a.451.451 0 0 0 .219-.016l.017-.007.001-.001c0 .004.004-.023 0-.036a.094.094 0 0 0-.017-.039c-.011-.017-.039-.028-.073-.021-.067.007-.1.059-.131.057zM64.611 85.732c-.028-.001-.062-.032-.066-.1a.345.345 0 0 1 .112-.257.508.508 0 0 1 .41-.144.47.47 0 0 1 .276.129.497.497 0 0 1 .145.289c.044.301-.161.583-.427.617l-.161.02-.043-.117c-.08-.219.02-.377.1-.44.087-.067.156-.053.172-.02.019.034.004.084.005.141-.003.054.017.13.053.15l-.204-.096a.234.234 0 0 0 .066-.191c-.011-.047-.014-.056-.05-.078-.038-.02-.106-.018-.159-.004-.109.021-.167.099-.229.101zM55.554 76.627c-.047.031-.144-.002-.193-.137a.451.451 0 0 1 .182-.508l.096-.069.101.044.043.019a.398.398 0 0 1 .22.327.379.379 0 0 1-.076.269c-.114.139-.237.099-.252.045-.022-.056-.004-.128-.035-.173a.252.252 0 0 0-.04-.066c-.006-.009-.015-.013-.018-.013l.02-.019-.001.002.188.002a.398.398 0 0 0-.122.126c-.038.053-.061.12-.113.151zM54.865 88.077c-.022.018-.065.022-.106-.027-.041-.048-.058-.148-.016-.245a.324.324 0 0 1 .331-.2.253.253 0 0 1 .201.117.503.503 0 0 1-.055.638c-.064.063-.127.086-.188.121-.1-.029-.219-.083-.271-.166a.335.335 0 0 1-.07-.222c.011-.128.088-.171.129-.154.046.017.076.066.122.094.049.04.089.022.095.002.003-.011.001-.013-.001-.013.002.001.006-.002.003-.017a.024.024 0 0 0-.006-.009l.002-.002v-.001l-.01-.032v.001l.002.004a.062.062 0 0 0 .008.018c-.005-.007-.019-.007-.031-.006a.186.186 0 0 0-.077.029c-.024.019-.038.051-.062.07zM75.97 87.538c-.017-.01-.021-.036-.036-.062-.012-.025-.042-.056-.063-.054l-.165.012.147-.161a.345.345 0 0 1 .132-.095c.068-.031.137-.035.213-.046l.027.106a.54.54 0 0 1 .018.188.273.273 0 0 1-.053.14.23.23 0 0 1-.056.052.163.163 0 0 1-.096.029.158.158 0 0 1-.125-.074.189.189 0 0 1-.032-.091c-.002-.034.009-.056.023-.07.031-.026.064-.011.079-.004.01.006.003.008.004.023.003.018.021.025.043.038.005.002.01.003.012.001.003-.003-.004.006-.005.012-.002.007-.003.008-.002.013-.003-.004.007.005-.019-.033.018-.016-.001-.004.006-.012a.21.21 0 0 0 .005-.041c0-.015-.001-.012-.001-.012h-.001l.001-.001c-.002.001.013-.023-.049.013l-.018-.149c.1.073.098.172.08.222-.019.054-.054.066-.069.056zM9.588 93.472c-.057.016-.141-.058-.188-.216a.81.81 0 0 1-.027-.285c.013-.164.098-.358.174-.523.03-.068.05-.097-.076.214-.017.075-.1.165.003.273.01.022.042.059.034.069l-.005.04-.003.068c-.004.043.007.054-.018.085-.009.011-.033.033-.029.033l.006.006c-.008-.037-.043-.045-.038-.154.016-.087.053-.115.079-.139a.26.26 0 0 1 .175-.059c.071-.004.135.072.121.111a.083.083 0 0 1-.046.036.083.083 0 0 1-.057-.007c-.009.009.023-.006.013 0 .002-.004-.007.015 0 .041.01.034.01.033.01.042 0 .008 0 .017.003.024.009.009-.011-.008-.03-.018a.158.158 0 0 0-.053-.018h-.01l-.003.001h-.001c.247-.043.068-.012.123-.022v-.005c-.001-.005-.003-.013.001-.01a.029.029 0 0 0 .013 0c.041-.031.031-.023.035-.019 0 .003-.003-.015-.019.005l-.062.2c-.035.119-.065.211-.125.227zM29.484 90.721c-.011.009-.028.012-.048-.001-.02-.012-.037-.046-.035-.086a.175.175 0 0 1 .141-.159.17.17 0 0 1 .117.021l.023.014.012.019.009.015a.208.208 0 0 1-.036.259c-.055.046-.105.033-.116.006-.014-.028-.009-.062-.016-.09a.16.16 0 0 0-.023-.064l-.001-.001.055-.001c.005-.008.001-.005.003.005-.001.006.013.032.008.024-.006-.003-.017-.003-.027-.003-.025-.004-.045.021-.066.042zM92.13 57.772c-.022-.018-.027-.065.02-.124a.341.341 0 0 1 .281-.102.433.433 0 0 1 .358.637.545.545 0 0 1-.282.251.464.464 0 0 1-.252.029c-.078-.011-.151-.054-.212-.081a.774.774 0 0 1-.031-.502.57.57 0 0 1 .158-.242c.125-.108.231-.102.253-.06.026.044-.011.116-.034.215a.612.612 0 0 0-.02.165c.01.017.023.021.03.018.008-.004.008-.01.008-.01-.012.023.074-.035-.043-.113-.088-.066-.183-.045-.234-.081zM87.782 31.141c-.011.007-.052-.024-.057-.108a.283.283 0 0 1 .204-.275c.176-.053.399.111.372.357a.319.319 0 0 1-.234.261.45.45 0 0 1-.345-.046c-.237-.146-.24-.404-.215-.572.008-.044.017-.086.029-.126.012-.043.042-.125.063-.178.002-.046.046-.014.073-.011l.087.026.105.036c.229.082.367.148.359.178-.008.03-.16.018-.4-.026-.023-.004-.076-.015-.079-.014-.007.002-.015-.003-.016.005-.002.014.003 0-.003.032a1.185 1.185 0 0 0-.016.104c-.017.134.021.302.122.352a.252.252 0 0 0 .177.029c.053-.011.076-.042.09-.086.022-.083-.072-.186-.137-.169-.076.006-.136.083-.152.133-.018.053-.011.092-.027.098zM88.257 49.354c.028-.01.065.004.087.051a.203.203 0 0 1-.017.183.199.199 0 0 1-.155.1c-.051.002-.081-.024-.085-.054a.33.33 0 0 1 .05-.161.334.334 0 0 1 .12-.119zM15.041 13.611c-.015-.009-.018-.056.045-.089.054-.035.217-.017.252.132a.204.204 0 0 1-.091.201c-.071.05-.18.06-.257-.003l.031.018-.006-.003a.367.367 0 0 1-.222-.398c.023-.122.098-.162.119-.144.027.018.018.076.038.146.016.069.071.161.147.19l.002.001.039.02-.021.014.012-.018v.001l.002.002c.002.001.009.001.013-.005.01-.012-.002-.039-.029-.049-.028-.012-.058-.004-.074-.016zM31.972 5.121c.014.001.031.019.028.06-.001.041-.039.1-.103.131a.278.278 0 0 1-.251-.001.232.232 0 0 1-.119-.15l-.01-.05.02-.048a.235.235 0 0 1 .063-.089c.123-.099.227-.076.311-.053.083.028.148.08.184.141a.194.194 0 0 1 .022.16c-.017.035-.035.047-.05.043-.03-.011-.039-.071-.095-.104a.277.277 0 0 0-.114-.041.173.173 0 0 0-.1.011s-.006-.001-.005.007c.011.013.064.028.093.025.066.005.094-.04.126-.042zM70.167 31.185c-.002.011-.013.021-.041.021-.032.006-.081-.061-.063-.114a.221.221 0 0 1 .092-.141c.062-.048.172-.059.243.018.102.115.083.245.05.342a.69.69 0 0 1-.061.128 1.054 1.054 0 0 1-.053.08c-.028.019-.07.029-.099.036a.354.354 0 0 1-.244-.043c-.122-.075-.132-.173-.106-.184.027-.017.08.026.166.038a.276.276 0 0 0 .136-.01c.009-.011-.007.009.01-.024a.716.716 0 0 0 .041-.095c.027-.062.015-.121.015-.121.001-.007-.007-.016-.019-.016-.016.001-.046.023-.056.031-.007.006-.007.002-.021.007.002-.003-.003.002-.002.009.006.013.014.027.012.038zM56.875 68.478c-.003.013-.015.03-.052.025-.046 0-.08-.094-.055-.144a.236.236 0 0 1 .147-.145.178.178 0 0 1 .22.103.254.254 0 0 1-.012.245.31.31 0 0 1-.105.11c-.072.044-.129.04-.143.014-.015-.027.006-.069.031-.123a.522.522 0 0 0 .032-.086.137.137 0 0 0 .005-.038c-.001.004-.002.002-.002.002.003.004.004-.027-.032-.01-.002 0-.008.004-.009.002l-.023-.001c-.017.008.002-.006-.004 0-.004.013.006.031.002.046zM13.524 45.853c-.051.003-.107-.213-.137-.509l.171.079a.263.263 0 0 0-.069.101.439.439 0 0 0 .046.368c.053.089.124.122.118.154 0 .026-.107.054-.232-.047a.505.505 0 0 1-.139-.556.433.433 0 0 1 .148-.193l.168-.12.003.2c.005.3-.025.52-.077.523zM93.495 32.905c.048.04.01.165-.023.308-.037.142-.062.27-.123.283-.058.015-.141-.14-.093-.336.048-.196.194-.295.239-.255zM72.023 79.577c-.003.013-.015.03-.052.025-.046 0-.08-.094-.055-.144a.236.236 0 0 1 .146-.145.179.179 0 0 1 .22.102.254.254 0 0 1-.012.245.323.323 0 0 1-.105.111c-.072.044-.129.04-.143.014-.015-.027.006-.069.031-.123a.522.522 0 0 0 .032-.086.137.137 0 0 0 .005-.038c-.001.004-.002.002-.002.002.003.004.004-.027-.032-.01-.002 0-.008.004-.009.002l-.023-.001c-.017.008.002-.006-.004 0-.004.013.007.031.003.046zM13.867 15.568a.092.092 0 1 1-.184 0c0-.051.041-.092.092-.092a.092.092 0 0 1 .092.092zM8.388 18.18a.092.092 0 0 1-.092.092.093.093 0 0 1 0-.185c.051 0 .092.041.092.093zM5.165 26.994a.092.092 0 0 1-.092.092.092.092 0 0 1-.092-.092c0-.051.041-.092.092-.092s.092.041.092.092zM25.469 13.283a.092.092 0 0 1-.093.092.092.092 0 0 1-.092-.092c0-.051.041-.092.092-.092a.091.091 0 0 1 .093.092zM11.611 29.606a.092.092 0 0 1-.092.092.092.092 0 0 1-.092-.092c0-.051.041-.092.092-.092a.092.092 0 0 1 .092.092zM16.767 21.444a.092.092 0 1 1-.184 0c0-.051.041-.092.092-.092s.092.041.092.092z" class="st0"/><circle cx="20.542" cy="23.729" r=".093" class="st0"/><path d="M18.701 19.485a.092.092 0 0 1-.093.092.093.093 0 0 1 0-.185.093.093 0 0 1 .093.093zM12.578 34.176a.092.092 0 0 1-.092.092.092.092 0 0 1-.092-.092c0-.051.041-.092.092-.092.05 0 .092.041.092.092zM23.213 27.973a.092.092 0 0 1-.092.092c-.051 0-.092-.041-.092-.092s.041-.092.092-.092.092.041.092.092zM24.502 30.585a.092.092 0 0 1-.093.092.092.092 0 0 1-.092-.092c0-.051.041-.092.092-.092.052 0 .093.041.093.092zM68.978 15.241a.092.092 0 1 1-.184 0c0-.051.041-.092.092-.092s.092.041.092.092zM43.195 57.355a.092.092 0 0 1-.092.092c-.051 0-.092-.041-.092-.092s.041-.092.092-.092a.091.091 0 0 1 .092.092zM48.352 56.702a.093.093 0 1 1-.185 0 .093.093 0 0 1 .185 0zM45.687 69.727c0 .051-.041.504-.093.504s-.564-.453-.564-.504c0-.051.379-.437.43-.437.051 0 .227.386.227.437zM38.361 50.826c0 .051-.041.092-.092.092s-.092-.041-.092-.092.041-.092.092-.092.092.041.092.092zM19.023 35.808a.093.093 0 0 1-.185 0c0-.051.041-.092.093-.092.051 0 .092.041.092.092zM18.057 45.276a.092.092 0 0 1-.092.092.092.092 0 0 1-.092-.092c0-.051.041-.092.092-.092a.092.092 0 0 1 .092.092zM12.255 48.54a.093.093 0 1 1-.186 0c0-.051.041-.092.093-.092s.093.041.093.092zM28.692 36.461a.093.093 0 1 1-.186 0c0-.051.041-.092.093-.092s.093.041.093.092zM29.014 44.623a.092.092 0 0 1-.092.092.093.093 0 0 1 0-.185c.051 0 .092.042.092.093zM22.246 42.011a.092.092 0 0 1-.093.092.093.093 0 0 1 0-.185.093.093 0 0 1 .093.093zM25.791 52.784a.092.092 0 0 1-.092.092.092.092 0 0 1-.092-.092c0-.051.041-.092.092-.092s.092.041.092.092zM9.999 66.822a.092.092 0 0 1-.093.092.093.093 0 0 1 0-.185.093.093 0 0 1 .093.093zM6.454 59.64a.093.093 0 0 1-.185 0c0-.051.041-.092.093-.092.051 0 .092.041.092.092zM15.478 60.946a.092.092 0 0 1-.092.092.093.093 0 0 1 0-.185c.051 0 .092.042.092.093zM23.536 61.599a.092.092 0 0 1-.093.092.092.092 0 1 1 0-.184.092.092 0 0 1 .093.092zM37.67 42.338a.046.046 0 0 1-.046.046.046.046 0 0 1-.046-.046c0-.026.021-.046.046-.046a.045.045 0 0 1 .046.046zM39.005 58.661a.092.092 0 1 1-.184 0c0-.051.041-.092.092-.092a.091.091 0 0 1 .092.092zM30.626 67.801a.092.092 0 1 1-.184 0c0-.051.041-.092.092-.092s.092.041.092.092zM20.957 71.066a.092.092 0 1 1-.184 0c0-.051.041-.092.092-.092s.092.041.092.092zM33.204 68.781a.093.093 0 0 1-.093.093.092.092 0 0 1-.092-.093c0-.051.041-.092.092-.092a.091.091 0 0 1 .093.092zM32.56 67.475a.093.093 0 0 1-.185 0 .092.092 0 0 1 .185 0zM18.379 55.723a.092.092 0 0 1-.092.092.093.093 0 0 1 0-.185c.05 0 .092.041.092.093zM44.484 47.235a.093.093 0 0 1-.093.093c-.051 0-.092-.041-.092-.093s.041-.093.092-.093c.052 0 .093.041.093.093zM43.517 63.558a.093.093 0 1 1-.092-.092.09.09 0 0 1 .092.092zM40.294 62.252a.093.093 0 0 1-.185 0c0-.051.041-.092.093-.092a.091.091 0 0 1 .092.092zM46.096 52.458a.093.093 0 0 1-.093.093.092.092 0 0 1-.092-.093c0-.051.041-.092.092-.092a.092.092 0 0 1 .093.092zM53.186 49.846a.092.092 0 1 1-.184 0c0-.051.041-.093.092-.093a.093.093 0 0 1 .092.093zM56.731 56.375a.093.093 0 1 1-.092-.093.093.093 0 0 1 .092.093zM49.963 63.231a.092.092 0 0 1-.092.092.092.092 0 0 1-.092-.092c0-.051.041-.092.092-.092s.092.041.092.092zM56.409 71.393a.092.092 0 0 1-.092.092.093.093 0 0 1 0-.185c.05 0 .092.041.092.093zM51.252 53.111c0 .051-.041.092-.092.092s-.092-.041-.092-.092.041-.093.092-.093.092.042.092.093zM47.385 66.169a.092.092 0 0 1-.093.092.093.093 0 0 1 0-.185.094.094 0 0 1 .093.093zM51.575 74.657a.093.093 0 1 1-.092-.093c.05.001.092.042.092.093zM59.632 74.984a.092.092 0 0 1-.093.092.092.092 0 0 1-.092-.092c0-.051.041-.092.092-.092a.092.092 0 0 1 .093.092zM27.318 24.451c.138.004.253.12.254.257a.259.259 0 0 1-.269.258.257.257 0 0 1-.254-.254.264.264 0 0 1 .269-.261zM30.149 70.406a.258.258 0 0 1-.244.264.254.254 0 0 1-.277-.247.26.26 0 0 1 .242-.267.264.264 0 0 1 .279.25zM78.492 73.678a.263.263 0 0 1-.272.256.259.259 0 0 1-.249-.26.254.254 0 0 1 .27-.254.26.26 0 0 1 .251.258zM28.016 19.148a.26.26 0 0 1 .28-.247c.14.009.249.127.243.265a.27.27 0 0 1-.261.252.27.27 0 0 1-.262-.27zM56.254 46.25a.263.263 0 0 1-.248.262.26.26 0 0 1-.273-.254.253.253 0 0 1 .246-.26.26.26 0 0 1 .275.252zM87.457 90.026a.52.52 0 0 1-.563.489.515.515 0 0 1-.482-.533.528.528 0 0 1 .563-.495.53.53 0 0 1 .482.539zM36.98 42.732a.27.27 0 0 1 .261.271.26.26 0 0 1-.263.246.26.26 0 0 1-.261-.248.268.268 0 0 1 .263-.269zM38.851 73.996a.266.266 0 0 1-.265.266.264.264 0 0 1-.257-.254.252.252 0 0 1 .245-.261.257.257 0 0 1 .277.249zM10.539 73.282a.252.252 0 0 1-.245-.277.253.253 0 0 1 .268-.237.258.258 0 1 1-.023.514zM65.36 81.052a.52.52 0 0 1-.537-.517.535.535 0 0 1 .504-.52.524.524 0 0 1 .532.523.506.506 0 0 1-.499.514zM66.888 57.683c0 .146-.12.26-.269.256a.249.249 0 0 1-.248-.256c0-.142.108-.254.249-.259a.262.262 0 0 1 .268.259zM92.993 44.954a.257.257 0 0 1-.273.252.25.25 0 0 1-.243-.261c.002-.15.12-.26.27-.253a.26.26 0 0 1 .246.262zM73.269 95.225a.526.526 0 0 1-.542.514.516.516 0 0 1-.49-.526c.003-.304.228-.515.539-.503.288.01.497.228.493.515zM16.355 69.693a.261.261 0 0 1-.263-.247.27.27 0 0 1 .259-.272.267.267 0 0 1 .262.269.256.256 0 0 1-.258.25zM23.059 87.711a.254.254 0 0 1-.244.263.26.26 0 0 1-.277-.25.27.27 0 0 1 .263-.268.268.268 0 0 1 .258.255zM8.91 17.718a.502.502 0 0 1-.485-.526.525.525 0 0 1 .545-.51c.289.02.508.277.484.57a.505.505 0 0 1-.544.466zM27.946 39.794a.257.257 0 0 1 .268.258.267.267 0 0 1-.252.259.262.262 0 0 1-.266-.262.25.25 0 0 1 .25-.255zM89.836 26.274a.25.25 0 0 1-.26-.245.261.261 0 0 1 .255-.273.266.266 0 0 1 .263.267.26.26 0 0 1-.258.251zM94.36 20.326a.517.517 0 0 1-.531-.521.52.52 0 0 1 .51-.507c.3-.006.529.221.525.522a.502.502 0 0 1-.504.506zM49.547 35.739a.253.253 0 0 1-.257-.249.249.249 0 0 1 .257-.265c.149 0 .266.119.26.265a.262.262 0 0 1-.26.249zM58 82.827c.001-.228.092-.353.245-.356.167-.004.272.145.252.364-.005.06-.004.134-.038.174-.057.068-.147.167-.209.157-.085-.013-.168-.105-.23-.181-.031-.039-.016-.116-.02-.158zM95.275 43.317c-.003.172-.108.293-.253.29-.155-.003-.321-.158-.316-.293.005-.137.171-.282.325-.285.158-.003.247.102.244.288zM80.756 77.48c0 .209-.155.387-.287.395-.13.008-.257-.123-.248-.254.01-.15.176-.335.303-.302.097.026.176.12.232.161zM94.013 46.848c-.153.005-.266-.089-.271-.225-.005-.142.143-.295.298-.308a.24.24 0 0 1 .265.231.302.302 0 0 1-.292.302zM17.916 91.527c-.001.196-.169.378-.3.386a.247.247 0 0 1-.249-.254c.012-.141.193-.336.313-.3.1.028.178.124.236.168zM71.067 51.13c-.006.175-.142.321-.285.307-.135-.013-.22-.127-.21-.284.01-.173.115-.288.26-.286.139.002.24.116.235.263zM89.766 81.808c-.002.168-.136.322-.282.316-.143-.006-.218-.088-.225-.229-.008-.164.122-.332.26-.341.129-.008.249.115.247.254zM44.832 42.403c.039.054.137.133.155.229.029.147-.181.311-.341.293-.143-.016-.214-.103-.207-.244.006-.142.18-.285.393-.278zM33.078 10.997c-.002.138-.134.245-.302.246-.172 0-.289-.11-.275-.259.012-.136.155-.241.315-.231.146.008.264.118.262.244zM78.833 68.018c.003.203-.154.361-.303.371-.142.01-.263-.104-.254-.239.009-.14.178-.309.321-.28.096.019.178.109.236.148zM81.099 23.074c.011.128-.103.242-.251.249-.167.008-.305-.086-.324-.221-.02-.138.077-.256.224-.271.159-.017.339.109.351.243zM65.94 83.912c-.059.039-.143.13-.241.15-.133.028-.31-.159-.314-.292-.004-.13.128-.25.261-.237.141.013.302.184.294.379zM34.674 83.354c.009.202-.144.373-.287.389a.243.243 0 0 1-.261-.24c.004-.134.181-.328.311-.3.098.02.181.112.237.151zM36.29 90.236c-.017.217-.214.383-.36.355-.139-.026-.208-.117-.194-.257.014-.142.2-.307.33-.267.095.029.169.125.224.169zM7.007 94.331c.18-.001.298.097.289.245-.01.168-.13.22-.271.234-.166.016-.305-.094-.31-.232-.005-.144.116-.247.292-.247zM50.843 27.41c.148-.007.263.039.283.204.02.159-.11.272-.305.271-.155-.001-.271-.097-.274-.227-.003-.134.125-.242.296-.248zM26.901 6.709c-.042-.055-.138-.132-.162-.227-.039-.156.103-.322.247-.336a.234.234 0 0 1 .258.233c-.001.153-.144.322-.343.33zM58.633 8.274c-.024-.002-.048-.006-.072-.006-.139-.001-.284-.017-.3-.187-.014-.145.103-.207.23-.232.153-.03.355.079.388.199.034.129-.067.222-.246.226zM59.205 24.296c-.157.007-.272-.082-.277-.213-.005-.143.143-.269.323-.267.133.002.233.056.252.201.021.157-.102.271-.298.279zM8.9 27.184c.012.231-.299.446-.474.376-.011-.004-.029-.008-.032-.016-.022-.074-.079-.194-.054-.216.122-.104.262-.193.408-.26.033-.013.117.088.152.116zM81.407 82.437c-.133-.006-.222-.108-.213-.243.011-.161.161-.309.31-.298.147.011.218.097.212.242-.007.161-.16.306-.309.299zM43.836 90.939c.016-.155.127-.26.258-.246.14.015.227.153.21.33-.015.159-.119.257-.258.243-.145-.014-.229-.145-.21-.327zM16.245 62.454c.004.238-.134.426-.255.388a.301.301 0 0 1-.169-.19c-.033-.159.116-.368.234-.34.082.019.149.11.19.142zM68.503 20.369c-.002.179-.204.353-.343.319a.288.288 0 0 1-.178-.181c-.026-.115.201-.296.335-.266.077.017.141.096.186.128zM66.302 64.095c-.15.006-.25-.047-.26-.196-.008-.117.142-.238.279-.225.13.012.233.072.251.214.015.121-.108.207-.27.207zM95.692 75.698c.038.05.122.118.147.204.044.152-.07.314-.204.324-.132.01-.201-.061-.212-.189-.013-.163.088-.323.269-.339zM29.141 72.304c-.029-.046-.101-.114-.113-.191-.025-.155.139-.358.258-.323a.3.3 0 0 1 .175.184c.031.149-.133.333-.32.33zM12.121 82.511c-.158.096-.245.187-.342.2-.139.019-.226-.09-.218-.228.008-.137.105-.238.241-.206.095.023.173.122.319.234zM23.987 40.376c.003.118-.137.257-.258.246-.128-.012-.182-.095-.185-.219-.003-.131.028-.242.177-.265.117-.02.263.117.266.238zM37.578 5.435c-.145.111-.223.215-.316.233-.13.025-.234-.066-.237-.211-.003-.14.084-.248.22-.231.095.012.18.108.333.209zM31.192 5.504c.1.148.201.232.212.327.015.133-.09.219-.234.212-.142-.007-.243-.095-.215-.23.02-.094.126-.169.237-.309zM53.672 35.909c.207.011.293.086.291.228-.002.14-.083.226-.227.224-.141-.002-.244-.088-.221-.223.017-.093.116-.173.157-.229zM74.913 47.557c-.006.141-.079.225-.221.227-.14.002-.229-.073-.231-.217-.002-.142.079-.225.22-.23.143-.004.217.079.232.22zM82.723 80.59c.116.137.226.21.245.303.026.13-.07.228-.213.237-.145.009-.249-.081-.238-.212.007-.094.108-.179.206-.328zM32.371 79.213c-.015.16-.089.241-.233.237-.142-.004-.223-.084-.22-.227.003-.143.088-.218.23-.218.147 0 .208.092.223.208zM86.238 78.548c-.136.117-.209.227-.301.247-.127.028-.23-.063-.241-.207-.012-.146.08-.247.209-.239.094.007.182.104.333.199zM14.402 85.056c-.093-.164-.186-.254-.174-.328.013-.085.106-.2.187-.223.121-.035.217.071.194.194-.02.099-.104.186-.207.357zM75.597 20.131c-.142.095-.224.183-.322.207-.118.029-.203-.055-.209-.183-.005-.115.156-.251.275-.217.076.022.136.1.256.193zM75.217 26.226c.017.177-.122.347-.237.319-.072-.017-.168-.108-.179-.177-.022-.137.078-.235.215-.234.077 0 .153.068.201.092zM91.683 74.3c-.119.112-.186.225-.277.249-.116.031-.193-.074-.197-.196-.004-.133.059-.251.196-.246.079.003.154.103.278.193zM39.818 11.951c-.143.106-.222.195-.319.228-.101.033-.186-.037-.2-.153-.015-.118.128-.279.249-.256.076.014.141.091.27.181zM72.06 76.962c-.157.087-.237.159-.327.174a.193.193 0 0 1-.219-.222c.025-.133.133-.185.241-.162.087.019.158.104.305.21zM8.224 24.383c-.142.097-.226.186-.325.208-.045.01-.157-.102-.173-.174-.027-.119.145-.276.254-.24.075.026.131.107.244.206zM39.794 57.216c-.032-.042-.136-.116-.139-.194-.006-.149.127-.206.255-.174a.309.309 0 0 1 .19.17c.035.106-.101.207-.306.198zM89.411 16.115c.008.183-.129.345-.244.315a.325.325 0 0 1-.192-.177c-.043-.116.102-.261.241-.242.079.01.149.077.195.104zM71.108 16.983c-.016-.019-.059-.048-.069-.085-.019-.068.052-.149.113-.131a.158.158 0 0 1 .092.092c.018.063-.039.12-.136.124zM41.732 84.142c-.14.09-.227.189-.321.196-.124.01-.184-.106-.153-.23.032-.127.113-.231.257-.187.07.022.118.116.217.221zM69.851 15.652c.097.135.199.217.213.312.017.121-.095.193-.218.168-.123-.025-.237-.099-.199-.245.018-.073.107-.128.204-.235zM64.354 32.5c-.089-.168-.16-.249-.171-.337-.016-.134.106-.244.221-.225.112.019.183.099.155.204-.026.098-.103.185-.205.358zM19.552 31.657c.113.13.226.202.243.293.024.128-.099.181-.218.176-.117-.005-.235-.056-.223-.184.008-.082.103-.155.198-.285zM50.123 33.098c-.032-.055-.107-.134-.122-.223-.022-.134.105-.265.213-.225.072.027.15.119.168.196.031.131-.082.253-.259.252zM47.891 33.754c-.084-.116-.171-.182-.176-.254-.01-.147.104-.204.239-.206.126-.002.234.067.199.19-.026.089-.144.153-.262.27zM44.004 66.466c-.137.106-.216.2-.315.234-.106.036-.182-.051-.197-.161-.017-.123.125-.28.248-.254.077.017.142.094.264.181zM67.216 9.697c-.153.093-.241.181-.34.195-.055.008-.161-.096-.183-.169-.034-.11.14-.26.264-.226.075.02.135.1.259.2zM30.879 54.47c.085.154.158.233.17.321.019.133-.109.245-.223.221-.128-.028-.189-.13-.161-.242.023-.086.108-.156.214-.3zM42.383 43.599c-.13.114-.202.225-.299.252-.122.035-.204-.067-.194-.196.01-.134.085-.242.229-.225.076.009.143.089.264.169zM21.432 21.729c-.128.115-.199.214-.295.255-.092.04-.211-.093-.193-.204.021-.129.088-.244.232-.228.074.007.138.092.256.177zM78.163 76.574c-.132.109-.207.205-.304.243-.103.041-.184-.033-.201-.147-.019-.127.109-.286.231-.265.079.014.148.088.274.169zM62.969 11.227c.003.184-.142.341-.254.303-.07-.024-.153-.122-.159-.192-.011-.133.082-.237.223-.224.075.006.144.084.19.113zM79.152 23.397c-.137.097-.201.174-.277.189-.127.025-.248-.028-.271-.173-.022-.133.066-.218.19-.197.101.018.192.094.358.181zM46.313 53.69c-.093-.116-.173-.175-.193-.251-.032-.117.127-.284.243-.251.072.02.182.134.171.179-.026.099-.117.181-.221.323zM40.606 29.72c.031.042.109.104.125.18.027.125-.122.269-.249.241a.257.257 0 0 1-.163-.152c-.035-.122.102-.265.287-.269zM31.78 41.028c-.152.093-.228.167-.316.187-.113.025-.218-.025-.241-.159-.021-.118.092-.233.23-.209.09.015.169.09.327.181zM63.681 71.479c.123.129.239.197.263.289.032.126-.09.21-.205.187-.089-.018-.204-.101-.228-.179-.019-.06.086-.159.17-.297zM73.966 61.297c-.117.089-.179.168-.256.188-.116.03-.246-.125-.237-.259.008-.116.086-.196.188-.162.098.032.174.128.305.233zM86.537 33.834c-.137.105-.215.198-.312.225-.044.012-.16-.097-.18-.168-.034-.121.124-.278.242-.247.075.019.134.098.25.19zM94.897 6.019c-.014.208-.105.266-.243.269-.127.002-.217-.057-.214-.188.002-.13.101-.199.22-.185.088.011.17.073.237.104zM34.802 7.301c-.179.01-.293-.101-.268-.236a.3.3 0 0 1 .158-.197c.118-.043.239.069.221.208-.01.088-.081.169-.111.225zM42.7 86.41c-.135.097-.214.188-.309.213-.111.028-.171-.07-.175-.179-.005-.142.131-.285.247-.246.073.026.127.11.237.212zM90.183 70.98c-.108-.132-.208-.206-.235-.301-.029-.103.061-.175.177-.179.127-.004.267.105.243.213-.018.077-.095.141-.185.267zM34.07 65.581c.098.154.181.239.209.34.029.104-.104.206-.213.18-.136-.032-.212-.133-.188-.264.014-.074.097-.134.192-.256zM51.771 79.143c-.088-.118-.166-.179-.184-.255-.028-.119.127-.244.264-.226.107.014.202.083.164.19-.033.094-.133.164-.244.291zM67.559 70.345c-.085-.125-.165-.192-.171-.265-.012-.135.085-.222.215-.248.106-.021.235.1.197.198-.038.097-.13.174-.241.315zM85.652 14.315c.092.152.168.229.183.316.02.114-.043.213-.175.229-.117.014-.234-.105-.204-.236.019-.087.098-.16.196-.309zM89.148 39.415c-.166.087-.247.158-.336.17-.143.02-.244-.09-.224-.213.023-.137.127-.182.24-.153.089.023.163.097.32.196zM64.804 9.158c.025.044.099.115.102.189a.211.211 0 0 1-.227.226c-.068-.004-.164-.099-.188-.172-.036-.111.125-.251.313-.243zM45.764 12.733c.032.066.1.149.107.236.011.138-.105.228-.23.207-.117-.019-.158-.1-.149-.207.01-.131.066-.227.272-.236zM69.132 96.792c-.058-.065-.103-.094-.115-.134-.035-.108.144-.371.268-.39.038-.006.12.032.119.046a.536.536 0 0 1-.052.231c-.054.087-.136.156-.22.247zM57.272 32.808c-.093-.134-.168-.198-.185-.275-.029-.136.103-.266.233-.253.116.011.186.091.158.194-.028.098-.109.182-.206.334zM5.942 13.997c-.054.033-.129.105-.215.123-.113.023-.217-.03-.232-.164-.015-.133.065-.196.19-.208.141-.014.252.068.257.249zM91.832 8.487c.036.064.109.142.122.229.021.14-.091.253-.21.214a.286.286 0 0 1-.16-.189c-.023-.128.046-.229.248-.254zM80.393 11.648c-.115.1-.178.191-.261.217-.111.035-.203-.094-.192-.237.01-.125.075-.221.2-.193.079.018.141.115.253.213zM16.998 21.359c-.095-.146-.187-.23-.203-.326-.017-.105.083-.164.195-.156.143.011.231.096.207.234-.013.072-.1.13-.199.248zM90.995 12.233c-.013.198-.073.308-.219.282-.066-.012-.153-.112-.165-.182-.021-.125.043-.255.189-.244.078.006.148.107.195.144zM5.613 18.427c-.008.177-.162.312-.282.27-.069-.025-.158-.127-.155-.192.006-.132.115-.217.25-.195.076.013.142.087.187.117zM48.802 92.211c-.013.183-.16.308-.284.268a.268.268 0 0 1-.154-.162c-.027-.119.125-.255.257-.227.075.015.137.09.181.121zM36.91 49.225c-.158.081-.247.163-.329.157-.065-.005-.16-.112-.174-.186-.023-.129.081-.213.202-.186.087.019.159.109.301.215zM72.684 14.917c-.133.093-.197.167-.275.187-.116.03-.257-.097-.228-.208.019-.072.121-.182.17-.174.097.015.182.1.333.195zM42.673 92.807c-.026-.04-.106-.109-.107-.18-.003-.136.103-.225.234-.208a.28.28 0 0 1 .189.159c.036.115-.116.237-.316.229zM27.91 34.808c-.117.07-.205.151-.306.173-.074.016-.166-.042-.245-.08-.011-.005.001-.114.021-.121.131-.045.266-.08.402-.105.024-.004.06.06.128.133zM95.518 65.235c-.05.04-.11.123-.186.141-.125.029-.21-.055-.222-.181-.01-.114.059-.186.172-.196.127-.011.205.054.236.236zM35.925 45.972c-.046.031-.103.098-.169.109-.14.022-.338-.115-.295-.185.039-.063.142-.105.222-.118.108-.017.219.006.242.194zM10.868 96.093c-.084-.126-.174-.201-.166-.265.009-.067.113-.17.172-.168.063.002.165.105.172.171.006.065-.088.138-.178.262zM86.389 72.354c.135-.08.217-.167.279-.155.068.013.155.113.165.184.015.104-.078.185-.186.158-.075-.018-.135-.094-.258-.187zM39.071 94.064c.035-.093.061-.21.12-.308.055-.091.17-.089.198.009a.456.456 0 0 1-.042.302c-.049.096-.151.116-.276-.003zM52.428 38.966c-.074-.131-.141-.201-.15-.278-.013-.114.083-.184.183-.152.069.022.159.118.159.181.001.065-.095.131-.192.249zM83.936 9.008c-.122.103-.189.202-.251.199-.069-.003-.133-.099-.2-.154.056-.064.103-.164.169-.18.062-.014.144.064.282.135zM52.97 29.238c-.116.094-.2.168-.292.227-.009.006-.113-.096-.106-.108.058-.095.13-.184.208-.263.006-.006.098.073.19.144zM24.097 26.886c-.088-.122-.163-.185-.179-.26-.024-.11.058-.196.165-.174.072.015.172.1.179.163.008.065-.081.142-.165.271zM14.319 61.916c-.126.093-.198.186-.263.182-.066-.005-.159-.098-.177-.169-.027-.104.055-.191.166-.173.077.012.145.081.274.16zM92.314 28.968c-.132.078-.211.162-.275.152-.065-.01-.115-.114-.172-.177.063-.057.125-.155.19-.158.066-.003.135.091.257.183zM70.475 72.922c-.077-.134-.16-.215-.147-.274.015-.067.116-.115.179-.172.057.065.154.126.159.195.005.06-.092.128-.191.251zM6.909 20.793c-.127.086-.201.175-.263.167-.068-.009-.126-.106-.188-.165.061-.062.116-.163.184-.173.062-.008.138.083.267.171zM59.12 48.184c-.122.103-.188.201-.25.199-.068-.002-.166-.085-.191-.154-.039-.107.048-.19.154-.184.075.004.147.068.287.139zM49.452 8.424c-.138.066-.212.129-.29.133-.111.006-.19-.086-.152-.189.026-.07.129-.155.197-.154.065.001.128.104.245.21zM67.928 94.463c-.094-.125-.19-.198-.183-.259.008-.069.106-.175.168-.177.062-.002.167.097.18.166.01.06-.08.139-.165.27zM61.805 43.745c.083.132.171.21.16.27-.012.068-.113.121-.175.18-.059-.063-.156-.122-.164-.191-.008-.061.086-.133.179-.259zM36.559 4.785c-.124.088-.186.162-.262.179-.109.025-.202-.053-.185-.16.012-.073.102-.173.169-.184.064-.009.144.081.278.165zM9.265 80.967c.083.126.157.191.169.267.018.109-.068.193-.173.168-.071-.018-.167-.108-.173-.172-.005-.065.088-.139.177-.263zM41.395 81.494c-.125.099-.194.195-.257.191-.068-.004-.166-.09-.188-.16-.034-.108.058-.19.161-.183.076.004.146.074.284.152zM10.454 10.02c-.132.088-.209.179-.274.172-.067-.008-.158-.106-.172-.178-.021-.106.066-.188.178-.164.076.015.141.085.268.17zM13.355 86.728c-.124.091-.193.181-.255.176-.069-.006-.13-.099-.195-.154.058-.064.108-.169.175-.181.061-.012.141.076.275.159zM82.427 24.82c.084.126.172.202.165.265-.008.065-.111.168-.17.166-.063-.002-.165-.103-.171-.168-.006-.065.087-.138.176-.263zM63.067 17.309c.096.123.191.191.187.253-.004.068-.096.178-.155.181-.061.004-.169-.089-.183-.155-.013-.06.072-.142.151-.279zM61.158 77.051c.085.128.174.204.167.269-.007.063-.107.148-.18.163-.107.023-.188-.064-.165-.173.017-.075.092-.138.178-.259zM85.547 17.906c-.145.058-.222.115-.299.115-.112-.001-.182-.097-.137-.198.03-.067.136-.143.202-.138.064.005.121.108.234.221zM45.04 47.123c-.089-.126-.182-.201-.175-.264.007-.066.11-.165.174-.167.059-.002.161.102.169.168.007.064-.083.138-.168.263zM60.409 48.859c-.126.091-.197.182-.258.176-.069-.007-.129-.1-.193-.156.058-.064.109-.166.177-.179.06-.012.139.075.274.159zM76.64 22.968c-.097-.123-.192-.191-.189-.254.003-.067.096-.177.155-.181.061-.005.169.089.182.154.014.062-.07.143-.148.281zM22.589 88.684c-.063.05-.097.098-.128.097-.034-.002-.082-.045-.094-.08-.017-.053.024-.096.079-.091.038.003.074.036.143.074zM26.246 52.155c-.138.074-.209.14-.285.147-.109.009-.192-.079-.157-.183.023-.07.121-.155.188-.158.063-.003.131.094.254.194zM79.295 37.118c.129-.089.204-.181.266-.173.068.008.124.109.186.17-.061.06-.116.16-.184.169-.062.008-.138-.08-.268-.166zM77.168 35.163c-.128.083-.203.17-.265.161-.068-.01-.125-.106-.186-.165.061-.062.117-.163.186-.173.061-.008.136.086.265.177zM63.632 88.402c-.138.07-.222.149-.284.134-.066-.015-.113-.119-.168-.183.067-.056.133-.153.202-.154.064-.002.13.099.25.203zM91.349 44.28c-.125.096-.193.189-.256.185-.068-.004-.13-.098-.195-.153.056-.065.103-.17.169-.183.062-.013.144.072.282.151zM47.84 83.168c-.137.076-.219.158-.28.145-.066-.013-.114-.116-.17-.179.065-.056.127-.154.195-.157.062-.004.13.092.255.191zM62.663 58.388c-.142.059-.231.131-.293.112-.065-.02-.103-.126-.153-.195.071-.051.144-.144.212-.14.063.004.121.11.234.223zM87.577 62.687c.088.128.18.203.172.266-.008.067-.11.17-.171.17-.06.001-.162-.103-.171-.17-.008-.063.083-.138.17-.266zM59.893 38.309c-.103-.119-.202-.183-.201-.245.002-.067.09-.177.153-.186.057-.008.168.084.184.15.015.061-.065.144-.136.281zM90.458 55.619c-.077-.132-.162-.212-.149-.271.015-.068.116-.117.179-.175.057.065.154.126.16.196.007.059-.092.128-.19.25zM26.57 69.107c-.136.088-.206.167-.28.17-.055.003-.149-.082-.166-.145-.03-.107.044-.203.155-.194.078.006.149.083.291.169zM21.824 63.988c.091.125.186.199.177.258-.01.069-.11.125-.17.187-.06-.061-.159-.115-.17-.184-.009-.059.08-.135.163-.261zM19.252 53.545c.084.123.157.187.172.263a.142.142 0 0 1-.17.172c-.071-.015-.167-.107-.174-.173-.008-.063.085-.138.172-.262zM71.445 6.531c.097.122.194.192.188.252-.007.069-.104.129-.162.193-.062-.058-.162-.108-.176-.175-.012-.06.073-.139.15-.27zM33.611 56.039c-.098.099-.153.203-.218.21-.126.013-.15-.11-.131-.206.013-.07.075-.13.115-.195l.234.191zM82.136 48.105c-.105-.124-.206-.192-.204-.257.002-.065.098-.153.172-.178.038-.013.16.084.164.137.005.075-.064.155-.132.298zM76.52 40.679c-.119.099-.185.196-.25.195-.065 0-.162-.087-.185-.156-.035-.103.041-.193.153-.182.076.009.147.072.282.143zM62.335 73.321c-.125.081-.212.149-.31.193-.024.011-.109-.05-.121-.09-.029-.103.134-.254.256-.236.046.008.085.063.175.133zM84.03 38.635c-.068-.13-.134-.198-.126-.256.009-.064.087-.117.135-.175.044.059.118.115.124.177.005.061-.062.126-.133.254zM93.08 89.146c.064.112.132.184.117.214-.038.074-.113.128-.174.191-.038-.049-.116-.109-.107-.146.02-.078.086-.143.164-.259zM46.866 91.98c-.133.055-.204.111-.268.103-.061-.008-.113-.082-.169-.127.062-.043.122-.119.185-.121.063-.003.128.069.252.145zM50.46 80.061c-.051-.089-.112-.162-.1-.178.053-.07.128-.123.195-.182.041.05.127.127.116.144-.046.073-.12.128-.211.216zM6.064 12.459c.068.076.126.111.135.156.019.09-.123.209-.221.182-.043-.012-.108-.101-.099-.119.042-.073.108-.133.185-.219zM35.558 85.095c-.11.068-.181.129-.263.154-.023.007-.078-.092-.118-.142.073-.051.142-.113.222-.147.022-.009.079.065.159.135zM75.867 18.86c-.129.052-.202.108-.263.097-.06-.01-.109-.088-.164-.135.061-.042.123-.116.184-.116.063.001.125.075.243.154zM79.807 51.668c-.061-.095-.114-.14-.113-.184.001-.12.075-.2.197-.196.037.001.109.091.1.109-.04.085-.103.159-.184.271zM77.591 41.507c.071.112.136.173.141.239.003.038-.093.119-.141.117-.054-.002-.15-.08-.147-.119.004-.066.073-.126.147-.237zM81.74 67.332c-.061-.088-.116-.131-.117-.176-.003-.128.091-.188.204-.19.035-.001.111.093.102.108-.043.082-.109.154-.189.258zM73.089 64.345c.055.109.121.18.111.239-.009.055-.099.096-.154.144-.035-.066-.092-.131-.097-.199-.003-.045.07-.095.14-.184zM74.012 85.238c.104.156.165.213.175.279.005.029-.107.116-.138.104a.266.266 0 0 1-.15-.153c-.013-.047.053-.115.113-.23zM93.713 10.816c-.067-.07-.148-.119-.144-.16.005-.05.078-.126.127-.131.046-.004.13.066.139.114.008.043-.065.1-.122.177zM68.613 7.617c-.096-.115-.163-.159-.171-.211-.015-.096.006-.206.134-.21.039-.001.112.07.112.108.002.08-.035.161-.075.313zM84.691 25.195c.053.091.115.151.109.202-.007.049-.085.088-.132.132-.04-.05-.114-.1-.112-.148.001-.054.072-.105.135-.186zM85.01 51.97c-.063-.081-.136-.133-.132-.178.005-.054.075-.102.117-.153.044.044.12.084.125.132.006.051-.056.109-.11.199zM17.486 93.247c-.094.067-.15.123-.218.146-.023.008-.075-.067-.114-.104.052-.053.098-.118.161-.151.022-.012.085.053.171.109zM20.062 96.198c-.097.06-.157.111-.227.131-.021.006-.067-.077-.102-.119.057-.046.108-.105.173-.132.024-.009.08.059.156.12zM83.214 93.586c-.071.063-.119.14-.164.139-.049-.002-.129-.076-.132-.122-.003-.049.066-.137.112-.143.047-.006.104.067.184.126zM53.582 80.217c-.092.054-.15.117-.203.112-.047-.004-.087-.083-.131-.128.051-.042.1-.113.153-.116.049-.003.1.069.181.132zM25.056 65.669c-.069-.072-.145-.135-.138-.147a.451.451 0 0 1 .152-.158c.018-.011.126.076.12.092-.024.068-.075.126-.134.213zM60.845 77.775c.053.077.124.136.115.179-.01.049-.092.115-.141.114-.045-.001-.128-.085-.124-.126.006-.051.082-.095.15-.167zM83.385 31.399c.06.081.128.134.125.182-.003.052-.072.1-.113.15-.047-.043-.127-.084-.131-.131-.004-.052.062-.11.119-.201zM49.024 86.126c-.068.029-.135.073-.205.079-.027.002-.061-.082-.092-.127.062-.04.12-.099.188-.114.049-.011.111.035.167.055l-.058.107zM77.438 28.293c-.088.059-.143.124-.197.122-.051-.002-.1-.072-.149-.113.05-.042.097-.112.151-.118.049-.006.107.057.195.109zM35.193 28.647c-.088.048-.142.099-.195.099-.036 0-.109-.085-.101-.108.02-.054.077-.126.123-.13.045-.004.095.071.173.139zM60.517 95.698c-.066-.07-.147-.12-.143-.161.005-.051.077-.127.128-.133.044-.005.132.067.137.113.005.046-.066.102-.122.181zM61.64 87.073c-.091.054-.149.117-.2.112-.049-.006-.089-.082-.133-.128.051-.042.1-.113.153-.116.047-.003.099.069.18.132zM24.902 7.728c-.088.06-.14.125-.188.121-.053-.004-.102-.069-.152-.108.046-.044.088-.117.139-.124.049-.006.108.056.201.111zM33.739 95.038c-.056-.073-.13-.13-.121-.169.011-.048.091-.115.137-.112.048.003.093.078.139.122l-.155.159zM81.126 58.833c.058.073.119.118.13.173.007.038-.055.09-.086.135-.055-.05-.119-.095-.159-.155-.011-.014.059-.081.115-.153zM12.935 60.643c-.085.039-.143.089-.176.076-.04-.016-.069-.084-.078-.133-.003-.017.074-.074.103-.067.045.011.08.062.151.124zM74.39 30.385c-.061-.056-.129-.09-.132-.13-.004-.04.051-.116.088-.122.038-.006.111.047.123.088.011.036-.041.091-.079.164zM88.673 22.415c-.073.053-.112.101-.158.108-.029.005-.101-.058-.097-.075.013-.048.049-.113.089-.123.035-.01.088.045.166.09zM84.493 41.35c-.07.054-.114.113-.154.111-.042-.003-.081-.065-.121-.101.038-.037.073-.1.114-.104.041-.005.089.049.161.094z" class="st0"/></g><path d="M82.387 26.508a1 1 0 0 1-.995-.899c-.182-1.79-.53-3.925-.822-4.777-.448.223-1.235.803-1.87 1.403a.997.997 0 0 1-1.398-.023.999.999 0 0 1-.009-1.398c.637-.658 1.245-1.488 1.431-1.928-.491-.263-1.619-.591-2.686-.765a1 1 0 0 1 0-1.974c1.065-.174 2.192-.502 2.685-.766-.188-.439-.805-1.282-1.429-1.926a1 1 0 0 1 1.406-1.422c.638.604 1.43 1.187 1.885 1.407.269-.797.624-2.967.808-4.782a1 1 0 0 1 1.99 0c.182 1.79.529 3.925.821 4.778.449-.223 1.236-.803 1.871-1.403a.997.997 0 0 1 1.398.023.999.999 0 0 1 .009 1.398c-.636.658-1.245 1.488-1.431 1.927.521.278 1.731.61 2.686.766a1 1 0 0 1 0 1.974c-1.066.174-2.193.502-2.686.766.186.438.795 1.269 1.431 1.927a.999.999 0 0 1-.72 1.695c-.246 0-.494-.092-.687-.274-.639-.604-1.431-1.188-1.887-1.407-.267.795-.622 2.966-.806 4.781a1 1 0 0 1-.995.899zM19.159 26.508a.997.997 0 0 1-.591-.193l-1.142-.835-1.142.835a.997.997 0 0 1-1.091.059 1 1 0 0 1-.494-.975l.153-1.406-1.294-.57a1 1 0 0 1 0-1.83l1.294-.57-.152-1.407a1.001 1.001 0 0 1 1.585-.916l1.142.836 1.142-.836a1.001 1.001 0 0 1 1.585.916L20 21.023l1.294.57a1.002 1.002 0 0 1 0 1.83l-1.294.57.153 1.406a1 1 0 0 1-.994 1.109zM42.589 83.237c-.208 0-.416-.065-.591-.193l-1.142-.836-1.141.836a1.001 1.001 0 0 1-1.585-.915l.152-1.407-1.294-.57a1.002 1.002 0 0 1 0-1.83l1.294-.571-.152-1.406a1 1 0 0 1 1.585-.915l1.141.835 1.142-.835a.997.997 0 0 1 1.091-.059 1 1 0 0 1 .494.975l-.153 1.406 1.294.57a1 1 0 0 1 0 1.83l-1.294.57.153 1.406a1.001 1.001 0 0 1-.994 1.109zM64.02 70.507c-.208 0-.416-.065-.591-.193l-1.142-.836-1.141.836a1.001 1.001 0 0 1-1.585-.915l.152-1.407-1.294-.57a1.002 1.002 0 0 1 0-1.83l1.294-.571-.152-1.406a1 1 0 0 1 1.585-.915l1.141.835 1.142-.835a.997.997 0 0 1 1.091-.059 1 1 0 0 1 .494.975l-.153 1.405 1.295.571a1.002 1.002 0 0 1 0 1.83l-1.295.57.153 1.406a1.001 1.001 0 0 1-.994 1.109zM65.247 49.282a1 1 0 0 1-.994-1.108l.152-1.406-1.294-.571a1 1 0 0 1 0-1.83l1.294-.57-.152-1.407a1 1 0 0 1 1.585-.915l1.141.836 1.142-.836a1.001 1.001 0 0 1 1.585.916l-.153 1.406 1.295.57a1 1 0 0 1 0 1.83l-1.295.571.153 1.405a1 1 0 0 1-1.585.916l-1.142-.835-1.141.835a1.008 1.008 0 0 1-.591.193zM31.423 47.219c-1.001 0-1.091-.839-1.254-2.363-.135-1.261-.416-3.886-1.032-4.62-.483-.577-1.98-.828-2.875-.978-1.106-.186-2.151-.36-2.151-1.413s1.046-1.229 2.152-1.414c.895-.15 2.391-.401 2.874-.978.616-.734.897-3.359 1.032-4.62.163-1.524.253-2.363 1.254-2.363s1.091.84 1.255 2.365c.135 1.261.415 3.884 1.031 4.618.483.576 1.979.827 2.874.978 1.106.186 2.152.361 2.152 1.414s-1.045 1.228-2.151 1.413c-.895.15-2.392.401-2.876.978-.615.734-.896 3.357-1.03 4.617-.164 1.526-.254 2.366-1.255 2.366z" class="st2"/><path d="M82.387 8.759s.5 4.937 1.203 5.64 3.172-1.64 3.172-1.64-2.368 2.444-1.622 3.191c.747.747 3.434 1.184 3.434 1.184s-2.687.438-3.434 1.184c-.747.747 1.622 3.191 1.622 3.191s-2.47-2.343-3.172-1.64c-.703.703-1.203 5.64-1.203 5.64s-.5-4.937-1.203-5.64c-.703-.703-3.172 1.64-3.172 1.64s2.368-2.444 1.622-3.191c-.747-.747-3.434-1.184-3.434-1.184s2.687-.438 3.434-1.184c.747-.747-1.622-3.191-1.622-3.191s2.47 2.343 3.172 1.64 1.203-5.64 1.203-5.64zM17.427 20.776l1.732-1.268-.232 2.134 1.964.866-1.964.867.232 2.133-1.732-1.267-1.732 1.267.232-2.133-1.964-.867 1.964-.866-.232-2.134zM40.857 77.504l1.732-1.268-.232 2.134 1.964.866-1.964.866.232 2.134-1.732-1.268-1.732 1.268.232-2.134-1.964-.866 1.964-.866-.232-2.134zM62.287 64.775l1.733-1.268-.233 2.134 1.965.866-1.965.866.233 2.134-1.733-1.268-1.732 1.268.232-2.134-1.964-.866 1.964-.866-.232-2.134zM66.979 43.55l1.732-1.268-.232 2.134 1.964.866-1.964.866.232 2.134-1.732-1.268-1.732 1.268.232-2.134-1.964-.866 1.964-.866-.232-2.134zM31.423 29.47c.297 0 .282 5.151 1.52 6.626 1.192 1.421 4.792 1.226 4.792 1.748s-3.601.327-4.792 1.748c-1.238 1.476-1.222 6.626-1.52 6.626s-.282-5.151-1.52-6.626c-1.192-1.421-4.792-1.226-4.792-1.748s3.601-.327 4.792-1.748c1.238-1.476 1.223-6.626 1.52-6.626z" class="st0"/></svg>